<svg width="64" height="64" viewBox="0 0 64 64" fill="none" xmlns="http://www.w3.org/2000/svg">
<path fill-rule="evenodd" clip-rule="evenodd" d="M53.2406 1.14742C52.0691 -0.0241513 50.1696 -0.0241497 48.998 1.14742L32 18.1454L15.002 1.14742C13.8304 -0.0241506 11.9309 -0.0241496 10.7594 1.14742L1.14742 10.7594C-0.0241497 11.9309 -0.0241481 13.8304 1.14742 15.002L18.1454 32L1.14742 48.998C-0.0241506 50.1696 -0.0241496 52.0691 1.14742 53.2406L10.7594 62.8526C11.9309 64.0241 13.8304 64.0241 15.002 62.8526L32 45.8546L48.998 62.8526C50.1696 64.0242 52.0691 64.0241 53.2406 62.8526L62.8526 53.2406C64.0242 52.0691 64.0241 50.1696 62.8526 48.998L45.8546 32L62.8526 15.002C64.0242 13.8304 64.0241 11.9309 62.8526 10.7594L53.2406 1.14742Z" fill="#31C3BD"/>
</svg>
