<svg width="32" height="32" viewBox="0 0 32 32" fill="none" xmlns="http://www.w3.org/2000/svg">
<path fill-rule="evenodd" clip-rule="evenodd" d="M31.5569 5.28973L26.7103 0.443061C26.1195 -0.147687 25.1617 -0.147687 24.571 0.443061L16 9.01404L7.42902 0.443061C6.83827 -0.147687 5.88048 -0.147687 5.28973 0.443061L0.443061 5.28973C-0.147687 5.88048 -0.147687 6.83827 0.443061 7.42902L9.01404 16L0.443061 24.571C-0.147687 25.1617 -0.147687 26.1195 0.443061 26.7103L5.28973 31.5569C5.88048 32.1477 6.83827 32.1477 7.42902 31.5569L16 22.986L24.571 31.5569C25.1617 32.1477 26.1195 32.1477 26.7103 31.5569L31.5569 26.7103C32.1477 26.1195 32.1477 25.1617 31.5569 24.571L22.986 16L31.5569 7.42902C32.1477 6.83827 32.1477 5.88048 31.5569 5.28973Z" fill="#1A2A33"/>
</svg>
